inDegrees=yes
name=ik_lifting_orientations
DataType=double
version=3
OpenSimVersion=4.5-2024-01-10-34fd6af
endheader
time	pelvis_tilt	pelvis_list	pelvis_rotation	pelvis_tx	pelvis_ty	pelvis_tz	hip_flexion_r	hip_adduction_r	hip_rotation_r	knee_angle_r	knee_angle_r_beta	ankle_angle_r	subtalar_angle_r	mtp_angle_r	hip_flexion_l	hip_adduction_l	hip_rotation_l	knee_angle_l	knee_angle_l_beta	ankle_angle_l	subtalar_angle_l	mtp_angle_l	lumbar_extension	lumbar_bending	lumbar_rotation	arm_flex_r	arm_add_r	arm_rot_r	elbow_flex_r	pro_sup_r	wrist_flex_r	wrist_dev_r	arm_flex_l	arm_add_l	arm_rot_l	elbow_flex_l	pro_sup_l	wrist_flex_l	wrist_dev_l
0.72	-11.35777853132559	-9.404316090097485	-100.8156101760072	0	0.9399999998679526	0	44.99512921149003	-10.19229148500387	0	59.99771237461234	1.047157624601531	-5.054382490451668	0	0	44.99512921149003	-10.19229148500387	0	59.99771237461234	1.047157624601531	-5.054382490451668	0	0	-11.90864491932998	9.838033625088197	1.348582678298471	2.105134542973295	-2.218543466327355	23.57917957562277	10.61885842709084	1.571369246284237	0	0	0	-11.71447390066996	0	88.45968173330502	1.571369246284237	0	0
0.73	-12.12692031152532	-9.955886164039716	-101.3136850967245	0	0.9399999998679526	0	44.99513094699559	-10.19205638051661	0	59.99771306367754	1.047157636627987	-5.054296055620638	0	0	44.99513094699559	-10.19205638051661	0	59.99771306367754	1.047157636627987	-5.054296055620638	0	0	-12.74941714204043	10.44338716415163	0.9462582247749608	2.060790221806019	-1.89971616031471	24.90276890655828	10.79544814547053	1.570977382246757	0	0	0	-11.71508005887858	0	88.46006580652143	1.570977382246757	0	0
0.74	-12.81681402057212	-10.48895223774882	-101.4626881291015	0	0.9399999998679526	0	44.99513307231717	-10.19176603237399	0	59.99771390120831	1.047157651245657	-5.054189165349241	0	0	44.99513307231717	-10.19176603237399	0	59.99771390120831	1.047157651245657	-5.054189165349241	0	0	-13.49445233917825	11.03599074058227	0.5657439123826978	1.97414601208414	-1.487193812515841	25.7749515951924	10.83849702861969	1.570498846891366	0	0	0	-11.71581850040038	0	88.46053482783336	1.570498846891366	0	0
0.75	-13.35700457420205	-10.88926125356057	-101.7466279272103	0	0.9399999998679526	0	44.99513455659368	-10.19156525475162	0	59.99771449045598	1.047157661529969	-5.054115402271806	0	0	44.99513455659368	-10.19156525475162	0	59.99771449045598	1.047157661529969	-5.054115402271806	0	0	-14.09710145151652	11.46712743676765	0.4432000132938406	1.889252043538792	-1.196379678060482	26.52323428979952	10.81325798751887	1.570163668812579	0	0	0	-11.71633699825033	0	88.46086334209285	1.570163668812579	0	0
0.76	-13.93883358282537	-11.25549590387752	-102.1792111037122	0	0.9399999998679526	0	44.99513655163119	-10.1912925347549	0	59.99771527514601	1.047157675225393	-5.054015035252179	0	0	44.99513655163119	-10.1912925347549	0	59.99771527514601	1.047157675225393	-5.054015035252179	0	0	-14.7322638097279	11.8960783625445	0.4729385410041291	1.848214210680681	-0.7973717004741663	27.1381946888504	10.66340523632991	1.569714723484459	0	0	0	-11.71702940067671	0	88.46130336166203	1.569714723484459	0	0
0.77	-14.48025241896262	-11.61927706812297	-102.6152588026593	0	0.9399999998679526	0	44.99513872182601	-10.19099500809874	0	59.99771612610736	1.047157690077471	-5.053905504451583	0	0	44.99513872182601	-10.19099500809874	0	59.99771612610736	1.047157690077471	-5.053905504451583	0	0	-15.29011364703155	12.24652498955844	0.8131894815588062	1.734262954262898	-0.2945513175985772	27.23783899274728	10.2790720942526	1.569226895346121	0	0	0	-11.71778105114933	0	88.46178149096058	1.569226895346121	0	0
0.78	-15.25795217763542	-12.0781549174181	-103.3861817031069	0	0.9399999998679526	0	44.99514080041921	-10.19071223183116	0	59.99771694553469	1.047157704379176	-5.053801586034244	0	0	44.99514080041921	-10.19071223183116	0	59.99771694553469	1.047157704379176	-5.053801586034244	0	0	-16.04615909061681	12.67069260203512	1.78218364590572	1.583657330962003	0.180731824493768	26.8600960786065	9.983937384023267	1.568758642784112	0	0	0	-11.71850384410711	0	88.4622404339338	1.568758642784112	0	0
0.79	-16.08340493719248	-12.5207608640518	-104.2883553798517	0	0.9399999998679526	0	44.99514315030764	-10.19039225056946	0	59.99771787048797	1.047157720522656	-5.053684004510989	0	0	44.99514315030764	-10.19039225056946	0	59.99771787048797	1.047157720522656	-5.053684004510989	0	0	-16.83589220197026	13.06554361901049	3.069635277650104	1.459773180299071	0.7152160000820172	26.1715872329198	9.61923085445858	1.568229536126301	0	0	0	-11.71932020186089	0	88.46275902111606	1.568229536126301	0	0
0.8	-16.88624923630318	-12.94804691177852	-105.1944805946095	0	0.9399999998679526	0	44.9951453356633	-10.19009491589878	0	59.99771873054289	1.047157735533446	-5.053574790828725	0	0	44.9951453356633	-10.19009491589878	0	59.99771873054289	1.047157735533446	-5.053574790828725	0	0	-17.59999462911176	13.44501401936578	4.500919253786654	1.251562615464015	1.295378100417735	25.26969444093834	9.003801705015016	1.567737455735936	0	0	0	-11.72007943313195	0	88.46324131817374	1.567737455735936	0	0
0.8100000000000001	-17.52794813971343	-13.23847769421888	-106.1236440333944	0	0.9399999998679526	0	44.99514701897814	-10.18986788453772	0	59.99771939714149	1.047157747167786	-5.053491561496751	0	0	44.99514701897814	-10.18986788453772	0	59.99771939714149	1.047157747167786	-5.053491561496751	0	0	-18.28365573259232	13.73271189433161	5.830111437310651	1.26634285688073	1.588594091815879	24.6601667410441	8.750640412965232	1.567357475396164	0	0	0	-11.72066692324524	0	88.46361374395774	1.567357475396164	0	0
0.82	-18.20520108857485	-13.46442505954325	-107.1406486893741	0	0.9399999998679526	0	44.99514839744314	-10.18968473761374	0	59.99771994904726	1.047157756800359	-5.053424632316169	0	0	44.99514839744314	-10.18968473761374	0	59.99771994904726	1.047157756800359	-5.053424632316169	0	0	-18.91653278980487	13.97858656014701	7.289934147865306	1.31864020601095	1.738097826407708	24.00579561383258	8.377532439745137	1.56704495187739	0	0	0	-11.72115187536556	0	88.46392005413256	1.56704495187739	0	0
0.83	-18.51257620236586	-13.5233538309894	-107.9133924915732	0	0.9399999998679526	0	44.99515024188639	-10.18943712407731	0	59.99772068118772	1.047157769578621	-5.053333976423151	0	0	44.99515024188639	-10.18943712407731	0	59.99772068118772	1.047157769578621	-5.053333976423151	0	0	-19.26380434916962	13.98555864371339	8.497517124566635	1.438671104026696	1.889908310953645	23.35656759830282	7.96319198113822	1.566628151858752	0	0	0	-11.72179683993582	0	88.46432856759246	1.566628151858752	0	0
0.84	-16.51227113756043	-12.35327488623656	-106.5738614263535	0	0.9399999998679526	0	44.99515447296857	-10.18886827465945	0	59.99772235110076	1.047157798724101	-5.053125943263874	0	0	44.99515447296857	-10.18886827465945	0	59.99772235110076	1.047157798724101	-5.053125943263874	0	0	-17.06042072880816	12.69606413394485	7.652931049865001	1.41256211883403	2.046324318287355	22.51414497784894	7.47080468797114	1.565673779230848	0	0	0	-11.7232709431063	0	88.46526396587863	1.565673779230848	0	0
0.85	-13.35040773481403	-10.54722869869219	-103.4436872914332	0	0.9399999998679526	0	44.99515973556953	-10.1881636466604	0	59.99772442841943	1.047157834980152	-5.052868711405388	0	0	44.99515973556953	-10.1881636466604	0	59.99772442841943	1.047157834980152	-5.052868711405388	0	0	-13.70414786634717	10.78817833397006	5.336771389408194	1.438617561488879	2.135375719496581	21.16143798529383	7.104710719711409	1.564486286199475	0	0	0	-11.72510539722607	0	88.46642784981572	1.564486286199475	0	0
0.86	-11.61741679695977	-9.272165481440544	-102.8244783634154	0	0.9399999998679526	0	44.99516400838359	-10.1875916454192	0	59.9977261144612	1.047157864407132	-5.052659942469745	0	0	44.99516400838359	-10.1875916454192	0	59.9977261144612	1.047157864407132	-5.052659942469745	0	0	-11.76525658847051	9.394905566422254	5.586830384200876	1.296625125131795	2.208037030863241	19.72845568561941	6.840137529440391	1.56352213516477	0	0	0	-11.72659485466949	0	88.46737283212877	1.56352213516477	0	0
0.87	-9.857027903485099	-7.953975970346044	-102.2370760590532	0	0.9399999998679526	0	44.99516576107953	-10.18735671822751	0	59.99772680729621	1.047157876499384	-5.052574107677104	0	0	44.99516576107953	-10.18735671822751	0	59.99772680729621	1.047157876499384	-5.052574107677104	0	0	-9.943633347567959	8.017241877067809	5.37557877962719	1.284211329475367	2.16227228781897	18.67844113079522	6.605568644978714	1.563126428454795	0	0	0	-11.7272065713285	0	88.46776067163104	1.563126428454795	0	0
0.88	-8.247054775333195	-6.893908523009366	-100.2930914780129	0	0.9399999998679526	0	44.99517042751528	-10.18673692004621	0	59.99772865412843	1.047157908732687	-5.052348469647906	0	0	44.99517042751528	-10.18673692004621	0	59.99772865412843	1.047157908732687	-5.052348469647906	0	0	-8.056639549079707	6.738193937945286	4.07330915712306	1.078260542401172	2.328245006489106	17.23254034442094	6.324334232449226	1.562071875748053	0	0	0	-11.7288374779926	0	88.46879425838767	1.562071875748053	0	0
0.89	-7.24809241597615	-6.191280207425335	-98.89359137013507	0	0.9399999998679526	0	44.99517750332724	-10.18580853575796	0	59.99773146883247	1.04715795785854	-5.052011741041062	0	0	44.99517750332724	-10.18580853575796	0	59.99773146883247	1.04715795785854	-5.052011741041062	0	0	-6.546827754001121	5.675153836003883	3.759434855447866	0.64465599791815	2.58691713633656	15.34003245534855	6.26787693163352	1.560469220927424	0	0	0	-11.7313199228853	0	88.4703650504068	1.560469220927424	0	0
0.9	-6.223318179388977	-5.44865463128127	-97.4702167274443	0	0.9399999998679526	0	44.99518140464533	-10.1852950824873	0	59.99773301622591	1.04715798486565	-5.051825450214963	0	0	44.99518140464533	-10.1852950824873	0	59.99773301622591	1.04715798486565	-5.051825450214963	0	0	-4.822555152231772	4.344288343502827	3.720135625623582	-0.0114315010255967	3.136173874386007	13.27750114813578	6.125399495097186	1.559586286863931	0	0	0	-11.73268678726971	0	88.47123043061184	1.559586286863931	0	0
0.91	-5.313217605069632	-4.746513861660189	-96.25111166278973	0	0.9399999998679526	0	44.99518542788724	-10.18476515996966	0	59.99773460996401	1.047158012681628	-5.051633194341755	0	0	44.99518542788724	-10.18476515996966	0	59.99773460996401	1.047158012681628	-5.051633194341755	0	0	-3.5024274381069	3.255663765662157	3.608329180581196	-0.4439870072471274	3.478893463327353	11.6327337970184	6.019370607350877	1.558676095867165	0	0	0	-11.73409539380958	0	88.47212252583432	1.558676095867165	0	0
0.92	-4.453808797060335	-4.032834980437374	-95.26765515250013	0	0.9399999998679526	0	44.99518873515637	-10.18432870768939	0	59.99773591878363	1.04715803552484	-5.051474769340256	0	0	44.99518873515637	-10.18432870768939	0	59.99773591878363	1.04715803552484	-5.051474769340256	0	0	-2.470675720245747	2.379659812758459	3.34210133043011	-0.7208038563945047	3.542978494731652	10.26510865759619	5.93006310160047	1.557928151299155	0	0	0	-11.73525263227734	0	88.47285560028757	1.557928151299155	0	0
0.93	-3.681184870336501	-3.397112767902669	-94.28671501843053	0	0.9399999998679526	0	44.99519015089479	-10.1841427740911	0	59.99773648268508	1.047158045366777	-5.051407287539901	0	0	44.99519015089479	-10.1841427740911	0	59.99773648268508	1.047158045366777	-5.051407287539901	0	0	-1.510757710261725	1.497222824090637	2.688037593535686	-1.171831204023744	3.699238554053361	9.421733239320371	5.96116526591149	1.55760722195761	0	0	0	-11.73575027723011	0	88.473170149178	1.55760722195761	0	0
